PathFileType	4	(X/Y/Z)	C:/Users/beibeiliu/ov580/test_trc/capture2\sequence.21_training_dense_right.trc
DataRate	CameraRate	NumFrames	NumMarkers	Units	OrigDataRate	OrigDataStartFrame	OrigNumFrames
120	120	16	19	mm	120	89	355
Frame#	Time	ThumbCMC			ThumbMCP			ThumbIP			ThumbTip			IndexMCP			IndexPIP			IndexTip			MiddleMCP			MiddlePIP			MiddleTip			RingMCP			RingPIP			RingTip			PinkyMCP			PinkyPIP			PinkyTip			BackHand1			BackHand2			BackHand3	
		X0	Y0	Z0	X1	Y1	Z1	X2	Y2	Z2	X3	Y3	Z3	X4	Y4	Z4	X5	Y5	Z5	X6	Y6	Z6	X7	Y7	Z7	X8	Y8	Z8	X9	Y9	Z9	X10	Y10	Z10	X11	Y11	Z11	X12	Y12	Z12	X13	Y13	Z13	X14	Y14	Z14	X15	Y15	Z15	X16	Y16	Z16	X17	Y17	Z17	X18	Y18	Z18	
88	0.733333	164.852	25.1345	23.5484	186.133	11.3396	-2.74481	195.359	9.06235	-26.9048	203.971	9.31519	-49.6463	155.624	48.6839	-47.018	171.216	41.4482	-70.946	189.438	32.3395	-88.8802	181.578	59.4704	-43.8801	203.84	40.6693	-36.1256	190.423	37.3516	0.33533	193.815	62.7505	-32.7238	207.933	45.8065	-12.3653	186.856	53.3856	14.4739	200.549	78.3465	-21.6584	212.295	57.7473	-1.28405	187.047	61.705	21.3377	161.368	87.1407	5.08623	160.266	83.8065	36.9712	143.895	60.7917	20.413	
89	0.741667	162.137	24.27	19.2865	183.439	10.3569	-1.11472	192.413	3.34676	-27.8618	200.796	3.73117	-45.6441	154.8	44.3237	-46.3027	166.84	34.5561	-66.8915	190.157	31.2131	-87.7551	179.799	55.4389	-41.3836	201.678	32.9304	-32.9722	186.414	33.8471	1.01231	194.297	59.0702	-32.3449	209.234	43.5584	-13.3148	187.371	45.5068	12.5272	204.793	74.1092	-20.7527	211.977	52.6488	-3.89318	191.751	55.9847	21.8496	164.105	87.7955	9.04306	163.858	84.7928	38.1437	141.997	59.4959	18.3229	
90	0.75	158.279	21.2631	22.8869	177.887	5.922	-2.55528	187.313	0.130056	-29.0364	196.785	-2.65232	-47.8697	152.039	41.1359	-47.5881	167.96	35.4966	-66.1157	185.284	26.1324	-84.5566	178.566	53.5819	-40.1466	199.121	28.9785	-32.4991	188.294	29.8853	1.65802	195.02	59.6163	-30.3526	205.76	36.7238	-9.52883	185.134	45.1794	15.0795	203.394	70.0509	-19.0605	212.441	49.0526	0.802373	190.755	52.9495	21.0095	163.798	84.4611	5.9868	161.949	79.7421	42.6081	140.618	59.2098	19.3773	
91	0.758333	153.334	23.0096	23.4633	169.282	1.80277	-1.68832	180.93	-2.97491	-21.2736	190.072	-6.5571	-44.0238	153.35	42.0856	-46.1883	166.521	28.6776	-68.1506	184.295	20.5747	-84.1944	179.015	47.4632	-39.4796	197.575	22.0979	-27.282	183.281	25.9009	4.79404	194.279	51.5721	-29.6726	205.176	30.8656	-6.24281	183.786	38.0465	15.2092	206.705	65.0136	-17.2756	207.815	41.3652	3.27863	187.556	48.4148	22.852	165.505	83.886	6.25675	163.472	80.9574	41.5965	141.125	58.8555	22.3749	
92	0.766667	144.876	17.8927	23.032	160.955	-0.272909	3.23609	170.294	-11.4387	-20.0946	182.859	-8.13291	-40.295	148.515	34.5725	-44.9753	162.033	22.3182	-67.1416	180.889	14.2117	-82.4893	175.441	40.5948	-38.4197	191.054	14.0822	-26.361	182.621	20.5343	6.98741	190.039	43.8803	-27.2167	201.51	23.7918	-8.54069	178.445	35.8694	19.9876	204.165	53.066	-16.3288	204.657	33.5285	2.00919	180.705	42.6366	25.0198	164.083	79.4681	8.37127	161.385	77.9691	43.373	139.053	55.6683	22.1802	
93	0.775	136.963	13.7673	26.4041	150.355	-10.252	7.56852	161.073	-17.5328	-20.0413	172.896	-21.0421	-38.6548	143.554	28.2847	-42.6027	154.223	14.0922	-62.4772	176.863	4.36281	-79.3304	167.624	32.3124	-35.8765	188.507	6.98224	-21.2813	172.57	12.3619	10.3597	186.417	35.1422	-24.7062	194.461	15.6533	-5.6811	174.587	22.4756	19.4029	197.552	45.5478	-13.4458	199.81	25.36	7.24197	175.929	37.1673	27.3027	161.764	74.143	7.88825	153.972	68.9406	44.6493	131.826	52.8585	19.7313	
94	0.783333	130.65	10.3941	32.5567	141.097	-15.1047	13.3553	151.904	-25.7708	-15.0981	167.731	-24.5843	-35.2051	141.546	21.9368	-41.2709	153.224	5.63284	-61.1188	167.155	-9.2519	-74.5939	164.868	23.2242	-34.2364	180.302	-2.52307	-18.5616	165.869	5.80018	14.0787	182.934	26.744	-23.366	189.526	7.37721	-1.55701	170.941	18.0295	24.7301	189.712	38.3407	-11.5243	191.173	16.0656	8.00906	168.076	31.3353	29.2957	158.907	66.4224	9.2499	152.931	66.69	39.6108	125.354	48.3296	24.4399	
95	0.791667	120.8	6.19789	32.6357	130.669	-20.0075	15.4541	143.878	-30.9634	-12.444	158.754	-28.9021	-27.9048	132.681	13.9438	-37.2355	147.171	-4.243	-55.9238	161.64	-22.1421	-66.655	160.784	17.6139	-30.4994	172.087	-11.9901	-17.478	161.273	-1.86367	16.4499	174.518	18.5578	-20.8123	180.263	-2.99011	0.525647	162.742	10.8614	26.5183	185.61	26.4871	-10.0676	184.248	7.47117	13.5363	165.213	24.0155	30.1873	152.679	60.6757	9.474	148.142	63.8479	40.4561	124.888	47.0315	20.8285	
96	0.8	111.665	5.36914	33.6141	125.005	-18.783	15.9547	134.342	-32.914	-4.2383	151.193	-35.9564	-23.6209	127.164	5.17522	-35.8098	136.868	-15.139	-49.4247	157.481	-33.644	-57.2713	153.536	2.22495	-30.0699	165.594	-20.8452	-12.4214	152.142	-11.8084	18.7133	171.361	9.13889	-16.2326	170.282	-12.3999	9.23864	150.164	5.06272	28.1933	185.232	16.9324	-6.35829	173.72	-2.07575	15.8485	159.01	15.9266	34.7646	150.275	53.2732	10.8383	143.346	58.8887	38.8007	118.915	44.8079	24.1902	
97	0.808333	104.895	5.74861	35.2242	115.364	-19.1221	20.5075	122.764	-38.6188	0.488721	143.518	-40.6323	-17.3455	125.668	0.191666	-32.9643	133.846	-25.0464	-42.9499	148.613	-48.9519	-45.0534	147.463	-5.85594	-27.9574	152.518	-30.5515	-10.4624	141.627	-15.827	22.8381	165.481	-4.99669	-12.2983	164.279	-20.6868	12.1174	147.428	1.28312	32.7184	176.158	5.38443	-2.12419	168.39	-9.28048	24.5264	151.477	15.4272	37.4355	152.708	47.0874	8.82385	143.511	57.4172	37.1806	116.608	42.8838	20.6642	
98	0.816667	97.9406	9.83892	40.0018	103.702	-20.4731	27.5719	114.826	-37.0889	7.21619	133.848	-46.984	-11.4845	121.388	-4.7939	-29.2467	128.61	-31.7134	-36.5435	135.095	-61.1134	-32.3522	143.759	-11.1211	-23.5076	143.885	-37.4494	-2.43222	132.044	-22.8556	25.4319	159.158	-9.34665	-7.82517	153.488	-27.3523	16.1394	139.165	-4.40439	35.2008	174.833	-3.00565	3.57284	155.549	-16.2983	26.5475	144.427	9.83366	37.2826	148.568	41.7153	11.5537	143.948	55.4581	40.735	114.212	41.2218	18.7331	
99	0.825	92.8464	13.8185	39.0932	96.6019	-17.7243	31.0701	104.476	-40.1034	11.4667	123.362	-52.2167	-3.4908	112.561	-9.42669	-25.3078	115.678	-36.9502	-30.2111	122.716	-66.1258	-15.2025	133.433	-18.1178	-19.1005	132.835	-41.5091	1.42665	121.202	-22.8916	30.712	150.288	-19.2255	-1.90604	142.853	-31.3429	25.6208	132.957	-3.96719	40.4013	166.351	-15.2078	9.16359	151.07	-21.259	35.1678	136.828	7.18133	41.6963	150.559	34.1873	11.1062	146.754	52.7362	39.6768	114.953	41.0979	20.6564	
100	0.833333	91.6679	18.7123	40.2848	86.0802	-15.365	35.2687	90.8782	-39.6425	22.8435	113.657	-51.8775	8.9184	111.458	-12.8372	-22.1359	107.548	-44.3633	-23.1949	109.509	-64.7315	-3.29365	129.179	-22.9128	-11.9744	122.395	-44.9353	10.7476	113.44	-22.3963	35.5541	143.836	-24.6554	3.23153	129.477	-35.1029	30.4319	123.573	-1.59363	42.4542	157.793	-20.1957	14.2311	139.605	-26.8407	36.6627	134.13	5.32253	45.3573	147.987	28.9242	13.6104	149.112	47.7476	38.9548	117.819	42.333	18.8373	
101	0.841667	87.7773	20.9066	37.9287	83.6455	-11.4787	38.5653	79.9239	-39.6234	28.2402	93.2515	-56.9437	20.8331	102.413	-16.7001	-20.3959	97.0221	-44.8023	-17.3398	95.0128	-64.7798	9.61676	121.622	-29.316	-6.64367	109.835	-44.9987	15.7262	104.624	-14.7804	40.0574	132.324	-29.885	8.26764	119.597	-34.6124	36.1051	116.5	-2.05454	45.6102	149.022	-24.1367	19.7737	130.383	-25.3732	43.5578	127.726	6.34396	48.1402	149.99	24.3889	17.5028	147.371	44.6984	40.1354	121.357	40.3412	18.2517	
102	0.85	91.5645	25.7468	39.5724	77.2492	-5.00066	44.096	69.1997	-33.6043	36.6989	77.7095	-52.6869	31.7837	101.153	-16.3434	-15.2831	91.4753	-44.8142	-11.3523	84.2335	-62.2298	14.9919	116.293	-29.9256	-0.689453	101.513	-42.2256	26.8652	104.28	-7.03919	43.9689	129.004	-31.8434	15.3857	111.726	-33.4099	41.3826	112.881	-0.183617	49.7664	140.163	-30.9515	27.1062	124.275	-24.6633	49.7716	126.663	6.83763	52.2253	149.659	16.5129	14.4696	152.864	42.3547	40.1685	125.074	39.0713	18.5536	
103	0.858333	90.0908	31.6908	41.112	76.4458	1.44726	46.9401	65.5622	-23.4512	41.8756	63.4422	-49.6865	34.5762	98.0467	-20.3122	-11.5324	80.6326	-44.5942	-4.45057	70.4968	-58.6946	20.3469	111.86	-31.2028	6.06327	92.5747	-36.3018	31.7464	97.6941	-3.89114	44.6633	119.934	-34.3926	20.0967	107.168	-31.1084	46.2485	112.711	1.81942	52.8173	134.995	-34.4108	33.0955	118.464	-24.2086	53.1149	123.28	8.51303	54.9729	151.925	11.8944	17.293	154.472	38.8019	38.4354	124.008	39.9875	17.2702	
